<svg width="169" height="264" viewBox="0 0 169 264" fill="none" xmlns="http://www.w3.org/2000/svg">
<path d="M43.5073 234.547L48.5584 237.156L53.6439 229.063L47.9238 225.47L43.5073 234.547Z" fill="#FFC09E"/>
<path d="M52.3067 237.306L43.9082 263.797C42.7561 265.995 37.9785 263.452 37.8517 260.969L38.7712 235.624C38.7712 235.624 41.2368 233.088 43.1835 232.663C43.5759 232.576 43.8811 233.166 44.2018 233.657C44.5605 234.211 47.6728 231.77 52.3067 237.306Z" fill="#FFD84D"/>
<path d="M103.773 127.766C103.633 126.644 102.678 125.814 101.548 125.814L73.9877 125.814C73.3563 125.814 72.7571 126.074 72.3828 126.583C70.2901 129.425 64.0306 139.969 72.616 155.292C72.8559 155.72 72.9655 156.222 72.9074 156.709L69.05 189.032C69.0071 189.391 68.8781 189.736 68.674 190.035L45.5882 223.906C44.6775 225.242 45.4263 227.074 47.012 227.39L55.709 229.121C56.5347 229.286 57.3832 228.977 57.9099 228.32L84.6568 194.971C84.9294 194.631 85.0977 194.22 85.1416 193.787L88.2529 163.05C88.3087 162.499 88.5599 161.98 88.9942 161.638C96.3911 155.803 106.156 163.234 106.108 155.958C106.057 146.878 104.412 132.876 103.773 127.766Z" fill="#8A7E72"/>
<path d="M88.572 254.333L94.789 254.108L98.1687 245.169L91.8514 242.776L88.572 254.333Z" fill="#FFC09E"/>
<path d="M98.5602 253.3L101.162 280.972C100.96 283.447 95.5698 282.963 94.4828 280.732L85.4449 257.034C85.4449 257.034 86.7278 253.737 88.3496 252.586C88.6777 252.354 89.1844 252.777 89.6763 253.104C90.2239 253.471 92.1343 250.007 98.5602 253.3Z" fill="#FFD84D"/>
<path d="M98.8361 247.294L92.1548 245.898C90.6182 245.576 89.4624 244.302 89.2901 242.738L102.011 194.438L86.495 166.261C86.2095 163.641 85.5704 152.857 88.077 153.678L104.495 148.37C105.909 148.832 118.687 193.233 118.687 193.233C118.687 193.233 102.208 246.342 100.944 246.967C100.318 247.285 99.584 247.412 98.8361 247.294Z" fill="#8A7E72"/>
<path d="M117.536 194.326C115.931 192.871 114.105 192.726 113.375 193.46C112.686 194.158 112.935 195.704 113.665 196.556C114.93 198.029 118.066 197.92 119.698 196.175C121.18 194.589 121.058 192.05 120.011 190.518C118.361 188.098 114.499 188.311 112.142 189.467C109.708 190.663 107.342 193.632 108.13 196.502C109.164 200.264 114.712 200.567 115.27 200.59C115.709 200.608 120.237 200.717 123.016 196.959C125.269 193.918 124.738 190.546 124.634 189.943" stroke="black" stroke-width="0.530153" stroke-miterlimit="10"/>
<path d="M81.1779 194.503C82.6737 192.858 84.5321 192.527 85.348 193.207C86.1231 193.851 86.0188 195.46 85.3525 196.403C84.2012 198.034 80.9875 198.229 79.1472 196.606C77.4746 195.133 77.3522 192.522 78.2724 190.854C79.7228 188.216 83.6935 188.053 86.2137 189.005C88.82 189.989 91.5306 192.794 91.0048 195.804C90.3158 199.752 84.6726 200.609 84.106 200.686C83.6573 200.749 79.0384 201.302 75.8247 197.735C73.2229 194.848 73.4314 191.349 73.4813 190.718" stroke="black" stroke-width="0.530153" stroke-miterlimit="10"/>
<path d="M98.0184 42.1917C98.0184 42.1917 103.902 83.7905 101.471 84.6022C99.0407 85.4183 85.6849 81.3773 85.6849 81.3773L76.1814 58.3074L86.093 40.6517L98.0184 42.1917Z" fill="black"/>
<path d="M86.6378 76.1461L88.5815 72.636C88.5815 72.636 77.4019 70.2448 75.5679 71.8375C73.7339 73.4346 76.1252 76.1461 76.1252 76.1461H86.6378Z" fill="#FFD84D"/>
<path d="M38.9468 98.6775L70.6384 91.5608C72.8937 90.6789 74.0125 88.1341 73.1306 85.8789C72.2487 83.6237 69.4231 79.201 67.1679 80.0829L41.1977 88.3798L20.1723 69.4781C18.4875 67.7362 16.7675 68.4952 15.0257 70.1801C13.2838 71.8649 15.0476 73.541 16.7324 75.2828L38.9468 98.6775Z" fill="#FFC09E"/>
<path d="M82.914 72.9566C82.3524 72.9873 69.523 77.9365 65.7629 82.4996C62.0027 87.0627 67.8206 96.9129 69.4177 105.662C71.0148 114.411 69.8187 124.745 73.1201 126.36C76.4214 127.975 91.8037 130.255 100.404 126.303C104.48 117.41 102.342 107.974 103.163 105.341C107.177 92.4639 108.187 77.9277 108.187 77.9277L89.1883 73.8834L82.914 72.9566Z" fill="#FFD84D"/>
<path d="M90.1414 87.2867C89.5187 87.2867 89.0138 86.7818 89.0138 86.159C89.0138 85.5363 89.5187 85.0314 90.1414 85.0314C90.7642 85.0314 91.269 85.5363 91.269 86.159C91.269 86.7818 90.7642 87.2867 90.1414 87.2867Z" fill="#121212"/>
<path d="M89.2601 95.5133C88.6373 95.5133 88.1325 95.0085 88.1325 94.3857C88.1325 93.763 88.6373 93.2581 89.2601 93.2581C89.8828 93.2581 90.3877 93.763 90.3877 94.3857C90.3877 95.0085 89.8828 95.5133 89.2601 95.5133Z" fill="#121212"/>
<path d="M98.9849 46.6314C98.9849 46.6314 99.3842 37.4043 97.4712 34.1355C95.5582 30.8668 82.2901 30.1604 78.8327 33.8021C78.8327 33.8021 73.6685 33.8065 70.5357 40.9714C67.6311 47.623 66.8194 64.5021 81.0835 64.6249L98.9849 46.6314Z" fill="black"/>
<path d="M88.2051 68.5335L86.314 71.3196L84.1553 72.0655L80.2284 71.8988V66.932L88.2051 68.5335Z" fill="black"/>
<path d="M85.032 65.8009C85.032 65.8009 88.2305 67.9815 91.4466 66.3142C93.092 65.4586 95.6149 61.286 96.7425 56.3851C98.2781 49.7247 97.0145 44.4903 96.001 44.034C94.3819 43.3057 84.0623 39.1462 79.508 47.3159C74.9581 55.4856 76.4323 56.135 76.4323 56.135C76.4323 56.135 75.2827 63.9054 76.9456 63.0762C76.9456 63.0762 77.3932 67.2532 78.025 68.9468C78.433 70.0349 78.3541 76.9015 81.9826 77.3754C84.0228 77.6386 85.8832 77.937 86.5018 75.7256C87.2433 73.0711 86.6949 69.5435 86.6949 69.5435L85.032 65.8009Z" fill="#FFC09E"/>
<path d="M91.1884 50.1812C91.3068 53.4017 92.8381 57.1487 92.4301 57.5129C91.7237 58.1491 89.8677 58.0131 89.7141 57.9341" stroke="black" stroke-width="0.394779" stroke-miterlimit="10" stroke-linecap="round"/>
<path d="M83.8171 50.6329C85.8617 49.2684 87.0112 49.8431 87.0112 49.8431" stroke="black" stroke-width="0.623616" stroke-miterlimit="10" stroke-linecap="round"/>
<path d="M96.9365 50.0891C94.8436 49.6108 93.9968 49.9136 93.9968 49.9136" stroke="black" stroke-width="0.623616" stroke-miterlimit="10" stroke-linecap="round"/>
<path d="M95.3005 52.599C95.3444 52.9675 93.4095 53.2001 93.3656 52.8315C93.3217 52.4586 93.7166 52.1032 94.2563 52.0418C94.7872 51.9759 95.2567 52.226 95.3005 52.599Z" fill="black"/>
<path d="M86.9504 52.7827C86.9943 53.1513 85.0594 53.3838 85.0155 53.0152C84.9716 52.6423 85.3665 52.2869 85.9062 52.2255C86.4371 52.1597 86.9066 52.4098 86.9504 52.7827Z" fill="black"/>
<path d="M90.6407 63.6864C89.8773 63.7522 88.4162 61.1943 88.3416 61.1109L92.5713 60.9968C92.1281 62.5281 91.2024 63.6338 90.6407 63.6864Z" fill="white"/>
<path d="M152.911 28.6067C154.718 24.6798 155.012 15.58 152.757 14.0663C151.41 13.6933 150.664 19.2041 150.664 19.2041C150.664 19.2041 151.564 12.0041 149.809 11.8944C148.054 11.7847 147.391 18.8882 147.391 18.8882C147.391 18.8882 147.839 11.5083 146.224 11.381C144.609 11.2538 142.767 23.5391 142.767 23.5391C142.767 23.5391 140.007 19.9807 139.098 20.3274C136.584 21.2882 139.467 25.7592 139.796 27.9179C140.283 31.1252 140.13 32.7706 140.375 34.9556C140.783 38.5973 146.935 36.8642 149.826 33.7402C150.576 32.9285 152.45 29.6115 152.911 28.6067Z" fill="#FFC09E"/>
<path d="M9.51473 71.639C9.4125 71.4506 -0.573814 61.9647 0.604528 58.9462C1.48156 57.8862 5.18878 61.9163 5.18878 61.9163C5.18878 61.9163 0.405445 56.6057 1.76135 55.5242C3.11725 54.4427 7.64768 59.8125 7.64768 59.8125C7.64768 59.8125 3.1334 54.1091 4.36555 53.0975C5.5977 52.086 14.0021 60.9693 14.0021 60.9693C14.0021 60.9693 14.2227 56.5411 15.159 56.3097C17.7309 55.6694 19.1083 62.3467 19.9907 64.3052C20.2651 64.9186 23.6015 72.2904 22.208 73.3019C20.7229 74.378 19.6248 74.0548 17.9353 74.9588C16.1221 75.9219 9.51473 71.639 9.51473 71.639Z" fill="#FFC09E"/>
<path d="M113.399 86.3125C113.5 86.2686 113.601 86.2204 113.702 86.1721L137.114 74.0492L151.031 29.3396C151.751 27.0273 150.461 24.5659 148.144 23.8463C145.832 23.1268 143.37 24.4167 142.651 26.7334L129.826 67.9417L109.669 78.3797C107.519 79.4942 106.677 82.1399 107.791 84.2942C108.849 86.3432 111.31 87.2032 113.399 86.3125Z" fill="#FFC09E"/>
<path d="M90.4114 75.5646C90.4114 75.5646 109.108 76.1108 112.723 74.7594C117.607 72.9342 121.858 72.061 121.858 72.061L120.064 90.6074L103.773 91.5639L100.561 83.0563L90.4114 75.5646Z" fill="#FFD84D"/>
<path d="M78.7954 73.7165C78.7954 73.7165 71.6654 75.5881 67.6777 76.5944C61.6132 78.1246 55.3086 83.1323 55.3086 83.1323L59.8629 99.7613L71.455 95.5184L78.7954 73.7165Z" fill="#FFD84D"/>
<path d="M89.7434 71.2764L86.3123 71.3202L83.5437 79.5514L89.8794 76.1466L89.7434 71.2764Z" fill="#FFD84D"/>
<path d="M79.4204 71.2764L82.8559 71.3202L85.6201 79.5514L79.2888 76.1466L79.4204 71.2764Z" fill="#FFD84D"/>
<path d="M70.0038 71.1235C70.1048 72.1634 69.4115 85.0278 70.4558 85.0804C72.9699 85.1989 78.2788 83.0007 80.771 81.3071C82.8551 79.8899 82.0127 58.4477 81.7758 55.4027C81.5432 52.3709 83.7282 45.8597 87.8438 46.2809C91.9594 46.7021 102.139 48.4484 103.503 44.4469C106.039 37.0143 95.5133 33.9913 95.5133 33.9913C95.5133 33.9913 84.7549 35.1013 83.0218 35.5401C81.8152 35.8472 76.0675 39.8706 72.6803 42.2926C71.2806 43.293 70.8594 47.1935 68.8806 50.8791L70.0038 71.1235Z" fill="black"/>
</svg>
